<?xml version="1.0" encoding="UTF-8"?>
<svg id="Calque_1" data-name="Calque 1" xmlns="http://www.w3.org/2000/svg" viewBox="0 0 352.89 181.27">
  <defs>
    <style>
      .cls-1 {
        fill-rule: evenodd;
      }

      .cls-1, .cls-2 {
        fill: #466eb3;
      }
    </style>
  </defs>
  <g>
    <path class="cls-2" d="M61.91,45.42h-7.04c-2.3-6.34-7.18-9.48-14.64-9.48-5.09,0-9.34,1.81-12.62,5.51-3.28,3.63-4.88,8.23-4.88,13.87s1.6,10.18,4.88,13.87c3.28,3.69,7.53,5.51,12.69,5.51,7.74,0,12.83-3.83,14.85-9.69h6.83c-2.79,9.97-10.32,15.62-21.68,15.62-7.04,0-12.9-2.37-17.43-7.18-4.53-4.81-6.76-10.81-6.76-18.13s2.23-13.32,6.76-18.13c4.53-4.81,10.32-7.18,17.36-7.18,11.22,0,18.89,5.72,21.68,15.41Z"/>
    <path class="cls-2" d="M110.64,37.2c4.67,4.81,7.04,10.81,7.04,18.06s-2.37,13.39-7.04,18.2c-4.67,4.81-10.67,7.18-17.85,7.18s-13.25-2.37-17.92-7.18c-4.67-4.81-7.04-10.88-7.04-18.2s2.37-13.25,7.04-18.06c4.67-4.81,10.67-7.18,17.92-7.18s13.18,2.37,17.85,7.18ZM79.54,41.45c-3.42,3.63-5.09,8.23-5.09,13.8s1.67,10.25,5.09,13.94c3.42,3.69,7.88,5.51,13.25,5.51s9.69-1.81,13.11-5.51c3.42-3.7,5.16-8.3,5.16-13.94s-1.74-10.18-5.16-13.8c-3.42-3.7-7.74-5.51-13.11-5.51s-9.83,1.81-13.25,5.51Z"/>
    <path class="cls-2" d="M164.94,30.92v29.49c0,13.11-6.9,20.22-19.1,20.22s-19.17-7.11-19.17-20.22v-29.49h6.34v29.49c0,9.55,4.25,14.29,12.83,14.29s12.76-4.88,12.76-14.29v-29.49h6.34Z"/>
    <path class="cls-2" d="M191.01,30.92c4.88,0,8.78,1.39,11.64,4.18,2.86,2.72,4.32,6.34,4.32,10.81s-1.46,8.02-4.32,10.74c-2.86,2.72-6.76,4.04-11.64,4.04h-8.09v19.03h-6.34V30.92h14.43ZM182.92,36.85v17.92h8.09c5.79,0,9.55-3.35,9.55-8.85s-3.76-9.06-9.55-9.06h-8.09Z"/>
    <path class="cls-2" d="M242.32,30.92v5.93h-20.5v14.78h18.06v5.93h-18.06v16.24h20.5v5.93h-26.84V30.92h26.84Z"/>
  </g>
  <g>
    <path class="cls-2" d="M16.02,137c0-3.1,1.03-5.56,3.1-7.4,2.07-1.86,4.81-2.78,8.2-2.78s6.14.92,8.2,2.78c2.07,1.84,3.1,4.3,3.1,7.4v7.23h-22.61v-7.23ZM18.76,141.61h17.12v-4.62c0-4.62-3.23-7.51-8.56-7.51s-8.56,2.84-8.56,7.51v4.62Z"/>
    <path class="cls-2" d="M16.02,111.71h2.75v8.43h6.85v-7.43h2.74v7.43h7.52v-8.43h2.75v11.04h-22.61v-11.04Z"/>
    <path class="cls-2" d="M21.99,96.37v2.64c-2.36.03-3.75,1.35-3.75,3.3s1.26,3.1,3.42,3.1c1.03,0,1.81-.29,2.36-.83.52-.57,1.13-1.63,1.81-3.15.87-2.06,1.78-3.53,2.75-4.39.97-.86,2.26-1.29,3.91-1.29,4.04,0,6.56,2.52,6.56,6.22,0,4.16-2.78,6.57-7.07,6.65v-2.64c2.87-.03,4.46-1.52,4.46-4.04,0-2.29-1.52-3.56-3.75-3.56-1.91,0-2.97,1.12-4.17,4.22-.78,1.86-1.65,3.24-2.58,4.13-.97.89-2.33,1.32-4.04,1.32-1.84,0-3.33-.52-4.52-1.52-1.19-1.03-1.78-2.47-1.78-4.27,0-3.56,2.26-5.79,6.39-5.88Z"/>
  </g>
  <g>
    <path class="cls-2" d="M68.41,95.42c9.41,0,15.27,5.16,15.27,13.25,0,4.32-1.74,7.67-5.23,9.97,5.23,1.88,8.23,6.14,8.23,11.64,0,8.44-6.27,13.94-16.11,13.94h-15.76v-48.8h13.59ZM61.16,101.35v15.06h7.53c5.23,0,8.58-2.93,8.58-7.39,0-4.95-3.35-7.67-8.85-7.67h-7.25ZM61.16,122.26v16.03h9.41c5.93,0,9.62-3.07,9.62-8.16s-3.56-7.88-9.62-7.88h-9.41Z"/>
    <path class="cls-2" d="M117,95.42l19.59,48.8h-6.97l-5.16-12.9h-21.54l-5.09,12.9h-6.97l19.59-48.8h6.55ZM113.66,103.58l-.91,2.65-7.67,19.17h17.22l-7.74-19.17-.91-2.65Z"/>
    <path class="cls-2" d="M151.02,95.42v48.8h-6.34v-48.8h6.34Z"/>
    <path class="cls-2" d="M202.05,95.42v48.8h-6.27l-24.26-35-1.88-3v38h-6.34v-48.8h6.21l24.12,34.86,2.09,3.21v-38.07h6.34Z"/>
    <path class="cls-2" d="M241.44,108.32h-6.41c-.07-5.09-3.28-8.09-8.02-8.09s-7.53,2.72-7.53,7.39c0,2.23.7,3.9,2.02,5.09,1.39,1.12,3.97,2.44,7.67,3.9,5.02,1.88,8.58,3.83,10.67,5.93,2.09,2.09,3.14,4.88,3.14,8.44,0,8.71-6.14,14.15-15.13,14.15-10.11,0-15.97-6-16.17-15.27h6.41c.07,6.21,3.7,9.62,9.83,9.62,5.58,0,8.64-3.28,8.64-8.09,0-4.11-2.72-6.41-10.25-8.99-4.53-1.67-7.88-3.56-10.04-5.58-2.16-2.09-3.21-5.02-3.21-8.71,0-3.97,1.26-7.18,3.7-9.76,2.51-2.58,6-3.83,10.39-3.83,8.64,0,14.08,4.88,14.29,13.8Z"/>
  </g>
  <rect class="cls-2" y="30.02" width="1.72" height="146.74"/>
  <g>
    <path class="cls-2" d="M22.7,162.71l5.82,14.2h-1.5l-1.68-4.12h-6.57l-1.64,4.12h-1.5l5.8-14.2h1.28ZM22.05,164.56l-.26.75-2.56,6.21h5.64l-2.56-6.21-.26-.75Z"/>
    <path class="cls-2" d="M44.12,170.34v6.57h-1.28v-6.45c0-1.76-.83-2.72-2.23-2.72-1.52,0-2.64,1.3-2.66,3.35v5.82h-1.26v-6.45c0-1.76-.85-2.72-2.25-2.72-1.54,0-2.64,1.34-2.64,3.51v5.66h-1.28v-10.18h1.18l.06,1.54c.41-.95,1.52-1.76,2.88-1.76,1.5,0,2.52.69,3.02,2.07.55-1.14,1.66-2.07,3.14-2.07,2.13,0,3.31,1.5,3.31,3.83Z"/>
    <path class="cls-2" d="M48.94,163.5c0,.55-.45.97-.99.97s-.99-.43-.99-.97.43-.99.99-.99.99.45.99.99ZM48.57,166.73v10.18h-1.28v-10.18h1.28Z"/>
    <path class="cls-2" d="M57.86,169.57h-1.32c-.02-1.24-.67-1.87-1.95-1.87s-1.89.63-1.89,1.6c0,.51.14.87.45,1.12.3.22.87.47,1.74.69,2.35.65,3.31,1.46,3.31,3.02,0,1.85-1.42,3-3.45,3-2.25,0-3.61-1.28-3.63-3.21h1.32c.02,1.28.87,2.01,2.35,2.01,1.38,0,2.11-.71,2.11-1.74s-.59-1.48-2.44-1.95c-2.11-.55-3.06-1.28-3.06-2.88s1.22-2.86,3.23-2.86,3.2,1.18,3.22,3.06Z"/>
    <path class="cls-2" d="M66.04,171.07v1.16h-6.39v-1.16h6.39Z"/>
    <path class="cls-2" d="M80.57,166.73h-1.5c-.65-1.87-2.25-3.02-4.69-3.02-1.62,0-2.96.59-4.02,1.74-1.03,1.16-1.56,2.6-1.56,4.36s.53,3.23,1.56,4.38c1.05,1.16,2.39,1.72,4.04,1.72,3.02,0,4.97-1.58,4.99-4.81h-4.71v-1.28h6.11v.81c0,2.03-.57,3.63-1.68,4.79-1.12,1.16-2.7,1.74-4.71,1.74s-3.71-.69-5.03-2.09-1.97-3.16-1.97-5.27.65-3.85,1.97-5.25,2.98-2.11,5.01-2.11c3.14,0,5.38,1.6,6.19,4.28Z"/>
    <path class="cls-2" d="M91.39,166.73l-5.74,14.54h-1.36l1.79-4.52-3.96-10.02h1.36l3.06,7.89.2.71.22-.71,3.04-7.89h1.38Z"/>
    <path class="cls-2" d="M106.99,170.34v6.57h-1.28v-6.45c0-1.76-.83-2.72-2.23-2.72-1.52,0-2.64,1.3-2.66,3.35v5.82h-1.26v-6.45c0-1.76-.85-2.72-2.25-2.72-1.54,0-2.64,1.34-2.64,3.51v5.66h-1.28v-10.18h1.18l.06,1.54c.41-.95,1.52-1.76,2.88-1.76,1.5,0,2.52.69,3.02,2.07.55-1.14,1.66-2.07,3.14-2.07,2.13,0,3.31,1.5,3.31,3.83Z"/>
    <path class="cls-2" d="M117.56,170.34v6.57h-1.28v-6.45c0-1.76-.85-2.72-2.25-2.72-1.56,0-2.68,1.38-2.68,3.51v5.66h-1.28v-10.18h1.18l.06,1.54c.41-.95,1.54-1.76,2.92-1.76,2.13,0,3.33,1.54,3.33,3.83Z"/>
    <path class="cls-2" d="M127.36,170.12v6.8h-1.22l-.04-1.48c-.55.97-1.74,1.7-3.22,1.7-1.77,0-2.88-1.1-2.88-2.72s.91-2.52,2.76-2.9l3.31-.69v-.67c0-1.64-.73-2.45-2.19-2.45-1.36,0-2.31.75-2.31,2.19h-1.28c.02-.97.34-1.79.99-2.41.67-.65,1.52-.97,2.6-.97,2.25,0,3.49,1.32,3.49,3.61ZM126.07,171.98l-3.06.67c-1.12.26-1.7.71-1.7,1.74,0,.97.63,1.54,1.74,1.54.97,0,1.77-.36,2.35-1.09.45-.59.67-1.26.67-2.01v-.85Z"/>
    <path class="cls-2" d="M136.41,169.57h-1.32c-.02-1.24-.67-1.87-1.95-1.87s-1.89.63-1.89,1.6c0,.51.14.87.45,1.12.3.22.87.47,1.74.69,2.35.65,3.31,1.46,3.31,3.02,0,1.85-1.42,3-3.45,3-2.25,0-3.61-1.28-3.63-3.21h1.32c.02,1.28.87,2.01,2.35,2.01,1.38,0,2.11-.71,2.11-1.74s-.59-1.48-2.44-1.95c-2.11-.55-3.06-1.28-3.06-2.88s1.22-2.86,3.23-2.86,3.2,1.18,3.22,3.06Z"/>
    <path class="cls-2" d="M141.14,164.13l-.02,2.6h2.76v1.2h-2.78l-.04,6.19c0,1.24.32,1.77,1.52,1.77.42,0,.87-.06,1.3-.2v1.16c-.34.14-.83.22-1.44.22-1.79,0-2.66-.83-2.64-2.78l.04-6.35h-2.03v-1.2h2.03l.02-2.6h1.28Z"/>
    <path class="cls-2" d="M154.64,171.6v.71h-8.09c.1,2.21,1.56,3.63,3.53,3.63,1.6,0,2.64-.63,3.13-1.91h1.32c-.63,1.97-2.19,3.1-4.46,3.1-1.4,0-2.55-.49-3.47-1.46-.89-.97-1.34-2.25-1.34-3.83s.43-2.84,1.3-3.83c.87-.99,2.03-1.5,3.47-1.5,2.78,0,4.63,1.85,4.63,5.09ZM146.54,171.15h6.8c0-2.13-1.3-3.45-3.33-3.45s-3.31,1.42-3.47,3.45Z"/>
    <path class="cls-2" d="M163.26,169.57h-1.32c-.02-1.24-.67-1.87-1.95-1.87s-1.89.63-1.89,1.6c0,.51.14.87.45,1.12.3.22.87.47,1.74.69,2.35.65,3.31,1.46,3.31,3.02,0,1.85-1.42,3-3.45,3-2.25,0-3.61-1.28-3.63-3.21h1.32c.02,1.28.87,2.01,2.35,2.01,1.38,0,2.11-.71,2.11-1.74s-.59-1.48-2.44-1.95c-2.11-.55-3.06-1.28-3.06-2.88s1.22-2.86,3.23-2.86,3.2,1.18,3.22,3.06Z"/>
    <path class="cls-2" d="M182.01,162.71l-5.74,8.76v5.44h-1.36v-5.44l-5.74-8.76h1.58l4.26,6.49.57.95.57-.95,4.28-6.49h1.58Z"/>
    <path class="cls-2" d="M192.02,166.73l-4.02,10.18h-1.24l-4.02-10.18h1.36l3.06,7.89.2.71.22-.71,3.04-7.89h1.38Z"/>
    <path class="cls-2" d="M202.32,171.6v.71h-8.09c.1,2.21,1.56,3.63,3.53,3.63,1.6,0,2.64-.63,3.13-1.91h1.32c-.63,1.97-2.19,3.1-4.46,3.1-1.4,0-2.55-.49-3.47-1.46-.89-.97-1.34-2.25-1.34-3.83s.43-2.84,1.3-3.83c.87-.99,2.03-1.5,3.47-1.5,2.78,0,4.63,1.85,4.63,5.09ZM194.23,171.15h6.8c0-2.13-1.3-3.45-3.33-3.45s-3.31,1.42-3.47,3.45Z"/>
    <path class="cls-2" d="M209.45,167.88c-.83,0-1.52.28-2.07.83-.65.63-.97,1.52-.97,2.68v5.52h-1.28v-10.18h1.2l.04,1.85c.4-1.07,1.46-1.95,3.08-1.95v1.26Z"/>
    <path class="cls-2" d="M220.08,162.1v14.81h-1.18l-.04-1.72c-.59,1.03-1.93,1.95-3.65,1.95-1.44,0-2.6-.51-3.47-1.5-.85-.99-1.28-2.27-1.28-3.81s.43-2.82,1.3-3.81c.87-.99,2.03-1.5,3.47-1.5,1.7,0,3.04.87,3.59,1.93v-6.33h1.26ZM212.76,168.88c-.67.77-.99,1.74-.99,2.94s.32,2.19.97,2.96c.65.77,1.52,1.16,2.6,1.16.95,0,1.79-.34,2.45-1.03.69-.71,1.03-1.64,1.03-2.8v-.43c0-1.2-.34-2.17-1.03-2.88-.67-.71-1.48-1.08-2.43-1.08-1.07,0-1.93.39-2.6,1.16Z"/>
    <path class="cls-2" d="M227.53,166.51c1.5,0,2.72.51,3.65,1.5.93.99,1.4,2.27,1.4,3.81s-.47,2.82-1.4,3.81c-.93.99-2.15,1.5-3.65,1.5s-2.72-.51-3.67-1.5c-.93-.99-1.4-2.27-1.4-3.81s.47-2.82,1.4-3.81c.95-.99,2.17-1.5,3.67-1.5ZM224.79,168.88c-.69.77-1.03,1.74-1.03,2.94s.34,2.17,1.03,2.96c.71.77,1.62,1.16,2.76,1.16s2.03-.38,2.7-1.16c.69-.79,1.03-1.77,1.03-2.96s-.34-2.17-1.03-2.94c-.67-.79-1.58-1.18-2.7-1.18s-2.05.39-2.76,1.18Z"/>
    <path class="cls-2" d="M242.45,170.34v6.57h-1.28v-6.45c0-1.76-.85-2.72-2.25-2.72-1.56,0-2.68,1.38-2.68,3.51v5.66h-1.28v-10.18h1.18l.06,1.54c.41-.95,1.54-1.76,2.92-1.76,2.13,0,3.33,1.54,3.33,3.83Z"/>
  </g>
  <g>
    <path class="cls-1" d="M293.02,126.02c.66,0,1.04-.2,1.9,1.44.46.71,1.7,2.24,2.16,2.75.2.52.94,1.95-.46,1.13-.76-.52-2.66-2.55-3.78-2.36l.18-2.97Z"/>
    <path class="cls-1" d="M292.92,65.28c.58-.11,2.94.82,3.4,1.13.48.3,0,.2-.66.5-.38,0-3.12.11-3.12.11.2-.61.58-1.23.38-1.73Z"/>
    <path class="cls-1" d="M263.12,91.8c0,.62,0,1.03.28,1.34-.58.09-4.26,1.43-6.8.71.46-.11,5.86-1.13,6.52-2.05Z"/>
    <path class="cls-1" d="M263.74,94.04c.56,1.22,3.48,5.19,7.17,8.77,1.42,1.02,8.42,9.72,9.55,11.25.66.61,9.18,10.23,11.44,10.75,0,.61-.76,1.23-.56,2.45-.58-.3-2.47-3.5-4.45-5.02-1.32-1.03-6.72-5.54-11.06-10.34-2.36-2.45-5.1-4.81-6.42-5.72-5.86-3.27-10.86-8.99-12-11.24.66,0,5.3-.3,6.34-.91Z"/>
    <path class="cls-1" d="M260.32,29.79c.94.71.28,2.46.48,3.68.18,1.64.18,2.16.18,2.16,0,0-1.04-.32-1.6-.21-.66,0-.38-1.13-.38-1.13.28-.71.86-2.86,1.32-4.5Z"/>
    <path class="cls-1" d="M261.36,36.75c0,1.52-.28,8.9-.28,10.11,0,1.54.38,11.97-.1,12.99,0,0,1.24.33,1.24-1.1-.18-1.84-.08-6.86,0-7.36,0-.93.46-1.25,1.5-.33.76.61.58,1.84-.46,2.86.08.82,1.22.41.38,2.77.46.2.94,1.54-.66,3.48-.67,1.02-.67.09-.48,2.75,1.32-.11,8.7,1.13,11.9,1.13,3.12.21,7.84.21,11.54.93,2.36,0,4.64.32,5.2-.09.1.62.28,1.64-.38,2.05-1.22-.11-7-.53-8.22-.53-1.24.11-2.94-.52-4.26-.41-1.52.2-10.78,1.23-11.72,1.13.48.71,3.5,2.66,1.14,6.75-1.32,2.75-2.36,4.81-2.84,5.82-.38,1.32-1.22,5.41-1.42,5.82-.46.41-5.48-.61-6.42-.61-.66,0-2.46-.2-4.92,1.84.76,1.13,5.48,3.57,10.3,2.86.66.32-.38,3.48-11.8,2.66-6.15-.5-16.92-2.45-24.57-4.5-4.34-.3-8.7-1.43-16.34-.81-.38,0-.38-.11,0-1.03.46-.61.94-1.22.94-1.73.38-.11,6.34.82,10.96,1.54,6.62.3,14.84,1.43,18.9,1.02.76-.3,10.3,1.64,17.3-5.41,2.46-3.89,1.5-15.86,1.04-17.6-.38-1.23-1.14-3.07-1.14-3.07-.48-.61-1.32-1.13-1.04,0-.66,0-1.04-.91-1.04-1.95-.66.11-.66.82-1.6-.91.46-.21.74-.52,1.32-.3-.38-.52-1.32-1.75-1.32-2.14.08-.73,1.42-.93,1.22-.82.56-.3.56-1.23.56-1.23l-.46.2c-.28.21-1.14,1.34-1.04-.3,0-.61.28-2.75,1.22-2.55-.56-.61-.56-1.13-.84-1.13.38-.11,1.32-.2,1.7.3.38-.3.28-.09.56-.61.28.52.58.71,1.32.82.48.2.86-.4.67,3.19-.1.3-.18,4.29-.1,4.7.1.52.84.18.84-.43.2-.41.38-3.27-.1-11.15-.66-3.48-.18-8.49-.74-9.61,0-.93,1.7-.93,2.54,0Z"/>
    <path class="cls-1" d="M209.94,84.75c-.38.27-1.08,1.63-1.26,2.04-.25.21-.69,0-1.19-.33-.94-.55-2.4-1.43-3.09-1.78-.38-.27.45-.75,1.19-.61,1.01.06,3.85.68,4.36.68Z"/>
    <path class="cls-1" d="M298.75,93.25c-.38.81-1.14,2.55-1.04,3.27.28,1.02,2.28,3.27,1.24,5.22-1.14,1.73-2.94,2.55-5.58.5-3.98-3.38-2.56-5.31-1.98-6.13.37-.52,1.5-1.02,2.26-1.02,1.04-.3,3.22-2.66,3.5-2.97l1.6,1.13Z"/>
    <g>
      <path class="cls-1" d="M290.55,85.69c-.1.82-1.62,5.32-1.52,5.73-.48.82-.67.59-1.33.29-1.6-.3-13.32-3.18-14.54-3.18-1.9-.2-8.8,0-10.4.21-1.32.09-3.02-.3-3.3-.41.18-.52.94-1.73.94-1.73.66,0,6.98.4,8.98.5.84,0,18.81-.79,21.17-1.41Z"/>
      <path class="cls-1" d="M259.54,86.8c-.46.52-.84,1.23-.84,1.54-.58-.3-2.84-1.13-4.16-.71-.48.09-.38-1.02.28-1.13.66-.11.56-1.34,4.72.3Z"/>
    </g>
    <g>
      <path class="cls-1" d="M307.83,96.75c.28,3.47-.86,14.39-.96,16.33-.08,1.84-.74,7.27.3,14.63.66,5,1.04,17.38,1.32,17.99.18.82-1.32-.71-1.7-1.22-.66,1.32-2.08,2.55-1.52,0,.2-4.39.66-14.11.1-21.79-.2-3.77.2-11.44-2.54-23.3,0-.81,1.88-.81,2.46-1.43.56-.41,2.16-1.63,2.54-1.22Z"/>
      <g>
        <path class="cls-1" d="M352.89,32.49c0,.93-1.88,2.45-2.26,3.27-.18,1.34-.38.82-.76.62-.46-.32-.46-.52-1.04-.52s-1.32-.41-1.8-.3c.38-.3.86-2.77,5.86-3.07Z"/>
        <g>
          <path class="cls-1" d="M349.31,38.24c-.56,1.43-10.5,10.92-12,13.17-.86.93-8.5,8.49-9.92,10.13-1.32,1.32-13.52,14.11-15.5,18.2-1.04,2.14-5.1,8.59-4.34,14.11-.67.41-4.82,2.45-5.4,3.07-.28-.11-.56-.62-.94-.82-.1-.93,1.42-3.38.38-5.82-1.42-2.25-3.88-3.18-5.48-1.64-1.32,1.43-2.08,1.13-3.32,4.4-.37-.11-1.5.11-1.7-.61-.08-.93,1.62-6.24,1.62-6.95.56-.73,3.96-3.89,4.82-4.41.56-.61,2.74-1.02,2.54-9.2.2-3.88-1.12-24.04-1.8-34.98-.37-2.55-.18-6.84-.94-12.68-.56-3.98-1.69-16.24-1.69-16.65.38-.2,2.54-.91,2.84-.81.46.91-.01-.23.08,3.56,0,2.66-.48,8.79-.2,11.04.28,2.86,2.08,13.7,2.94,18.51,1.5,8.39,7.18,29.15,6.8,31.4,1.04-.3,13.32-8.81,13.98-9.2.56-.32,9.54-6.97,10.12-7.68,1.6-1.02,7.74-9,9.72-11.65,1.14-1.54,4.17-5.51,4.17-5.51l2.64.81.56.21Z"/>
          <path class="cls-1" d="M297.99.7c.48,1.02-.08,2.66.1,3.38-.56.5-3.02,2.14-2.36.3.1-1.75,1.6-3.89,1.6-3.89,0,0,.2-1.22.66.21Z"/>
        </g>
      </g>
    </g>
  </g>
</svg>